HIERARCHY
ROOT Hips
{
  OFFSET 0 0 0
  CHANNELS 6 Xposition Yposition Zposition Zrotation Yrotation Xrotation
  JOINT LeftThigh
  {
    OFFSET 8.409438 0 -5.917753
    CHANNELS 3 Zrotation Yrotation Xrotation
    JOINT LeftLeg
    {
      OFFSET 0 0 -42.358652
      CHANNELS 3 Zrotation Yrotation Xrotation
      JOINT LeftFoot
      {
        OFFSET 0 0 -39.357303
        CHANNELS 3 Zrotation Yrotation Xrotation
      }
    }
  }
  JOINT RightThigh
  {
    OFFSET -8.409438 0 -5.917753
    CHANNELS 3 Zrotation Yrotation Xrotation
    JOINT RightLeg
    {
      OFFSET 0 0 -42.358652
      CHANNELS 3 Zrotation Yrotation Xrotation
      JOINT RightFoot
      {
        OFFSET 0 0 -39.357303
        CHANNELS 3 Zrotation Yrotation Xrotation
      }
    }
  }
  JOINT SpineLow
  {
    OFFSET 0 0 4.719101
    CHANNELS 3 Zrotation Yrotation Xrotation
    JOINT SpineMid
    {
      OFFSET 0 0 12.899191
      CHANNELS 3 Zrotation Yrotation Xrotation
      JOINT Chest
      {
        OFFSET 0 0 12.899191
        CHANNELS 3 Zrotation Yrotation Xrotation
        JOINT LeftShoulder
        {
          OFFSET 7.550562 1.41573 9.438202
          CHANNELS 3 Zrotation Yrotation Xrotation
          JOINT LeftArm
          {
            OFFSET 9.155056 0 4.247191
            CHANNELS 3 Zrotation Yrotation Xrotation
            JOINT LeftForearm
            {
              OFFSET 0 0 25.771955
              CHANNELS 3 Zrotation Yrotation Xrotation
              JOINT LeftHand
              {
                OFFSET 0 0 25.197169
                CHANNELS 3 Zrotation Yrotation Xrotation
              }
            }
          }
        }
        JOINT RightShoulder
        {
          OFFSET -7.550562 1.41573 9.438202
          CHANNELS 3 Zrotation Yrotation Xrotation
          JOINT RightArm
          {
            OFFSET -9.155056 0 4.247191
            CHANNELS 3 Zrotation Yrotation Xrotation
            JOINT RightForearm
            {
              OFFSET 0 0 -25.771955
              CHANNELS 3 Zrotation Yrotation Xrotation
              JOINT RightHand
              {
                OFFSET 0 0 -25.197169
                CHANNELS 3 Zrotation Yrotation Xrotation
              }
            }
          }
        }
        JOINT Neck
        {
          OFFSET 0 0 15.101124
          CHANNELS 3 Zrotation Yrotation Xrotation
          JOINT Head
          {
            OFFSET 0 0 11.325843
            CHANNELS 3 Zrotation Yrotation Xrotation
            End Site
            {
              OFFSET 0 0 14.157303
            }
          }
        }
      }
    }
  }
}
MOTION
Frames: 11
Frame Time: 0.0
0.0  93.25843  0.0  3.390059  37.122688  -86.444619  3.54495  -11.844386  16.498095  -4.903885  1.850445  16.090432  7.034617  2.375588  -1.035899  -33.892551  -9.575128  -48.094444  8.629742  18.434499  53.349613  7.373647  2.866334  2.375118  -0.153451  0.243145  0.612297  -0.41327  0.668445  1.672154  -0.41327  0.668445  1.672154  -13.64945  24.347916  10.241307  143.521228  39.33518  -163.19237  -7.685517  9.733661  85.090139  60.344916  -30.997933  -1.523002  6.052431  -12.222687  16.975714  33.84489  70.474448  -14.730763  -34.546713  -32.758662  -88.440092  51.968999  6.408755  -12.312569  -18.044566  -1.937247  1.009404  -13.528981  -1.484289  0.700459  
0.0  93.25843  0.0  3.374398  36.154171  -86.701688  4.322971  -11.738339  17.319828  -4.633662  1.528725  15.239013  7.089383  2.385623  -0.93573  -33.356835  -9.683149  -47.778151  8.321305  18.514715  53.106009  7.32007  2.877836  2.403741  -0.035895  0.265751  0.61415  -0.091365  0.727261  1.678385  -0.091365  0.727261  1.678385  -13.855167  24.393113  10.289063  143.889377  39.843154  -163.056795  -8.271965  9.64589  84.751181  60.319207  -30.718321  -1.752284  5.931492  -12.237621  16.851909  36.350894  69.928058  -12.405702  -34.361933  -32.738259  -88.897019  51.883072  6.356287  -12.221888  -17.855126  -1.791752  1.07959  -13.38714  -1.376766  0.758006  
0.0  93.25843  0.0  3.185709  34.715042  -87.020182  5.573993  -11.670671  18.138598  -4.270865  1.108211  14.387428  7.158449  2.458686  -0.817138  -32.38559  -10.059882  -47.420956  8.081227  18.649985  52.808686  7.465213  3.016222  2.446983  0.109999  0.27737  0.590109  0.307431  0.755424  1.614328  0.307431  0.755424  1.614328  -13.981353  24.418621  10.36945  144.370334  40.354497  -162.849254  -8.98646  9.465641  84.230038  60.245246  -30.456592  -2.173588  5.846881  -12.364052  16.731383  39.168361  69.233824  -9.935127  -33.912492  -32.812097  -89.429284  51.785875  6.471486  -12.079375  -18.107956  -1.516924  0.966848  -13.577816  -1.167572  0.680825  
0.0  93.25843  0.0  3.045255  33.797672  -86.913584  6.604419  -11.750205  18.6208  -4.072229  0.797033  13.406207  7.091689  2.445164  -0.756381  -31.782901  -10.637169  -47.292488  8.122915  18.863714  52.559583  7.546355  3.036983  2.4228  0.195856  0.277094  0.521032  0.541314  0.753143  1.42648  0.541314  0.753143  1.426479  -14.465062  24.421214  10.302212  145.017721  40.970006  -162.480973  -9.79006  9.488281  83.48306  60.347628  -30.1998  -2.876634  5.45852  -12.462873  16.323172  42.051497  68.338862  -7.56814  -33.345593  -32.927689  -90.023088  51.658902  6.463597  -11.875162  -17.790178  -1.306363  1.045187  -13.339869  -1.011231  0.746555  
0.0  93.25843  0.0  2.742422  32.283422  -87.211202  7.969223  -11.953537  19.186659  -4.894337  0.454326  12.07831  7.783477  2.637471  -0.174771  -30.566019  -11.134205  -46.780767  8.393326  19.04202  52.342118  7.513234  3.070464  2.372551  0.338759  0.251069  0.502007  0.931161  0.679191  1.375718  0.931161  0.679191  1.375718  -15.155443  24.376155  10.034943  146.171416  41.626011  -161.907397  -10.574743  9.808748  82.562559  60.790727  -29.906712  -3.966416  5.170374  -12.494076  15.812325  45.639678  67.236482  -4.629337  -32.442104  -33.221984  -90.902839  50.599487  5.555334  -12.265096  -17.948478  -0.94819  0.912364  -13.459674  -0.738708  0.657067  
0.0  93.25843  0.0  2.582342  31.464891  -87.118925  8.907391  -12.189823  19.607527  -4.788431  0.174795  11.214133  7.611659  2.625662  -0.089247  -29.845826  -11.558145  -46.434327  8.647949  19.230085  52.032834  7.663012  2.977143  2.302151  0.356803  0.22234  0.432434  0.979249  0.601326  1.185297  0.979249  0.601326  1.185297  -15.660518  24.291419  9.850986  147.235616  42.384974  -161.271674  -11.4056  10.401019  81.604747  61.611749  -29.505813  -5.361331  4.765292  -12.467768  15.227098  48.30212  66.131384  -2.674891  -31.403835  -33.281041  -91.594073  50.373303  5.57411  -11.845483  -17.471267  -0.678635  1.034725  -13.102195  -0.539095  0.757359  
0.0  93.25843  0.0  2.27415  30.572679  -87.277027  9.500037  -12.329228  20.283169  -4.402779  -0.215629  10.327102  7.300676  2.58971  -0.027028  -28.964513  -11.82947  -45.816434  9.05394  19.187419  51.772951  7.748684  2.866504  2.223464  0.358328  0.163172  0.374478  0.981967  0.440443  1.026005  0.981967  0.440443  1.026005  -16.257562  24.223355  9.694892  148.377359  43.264287  -160.681796  -12.380616  11.04433  80.640254  62.305834  -29.203256  -6.556308  4.539791  -12.444879  14.847098  51.750584  65.007085  -0.028584  -30.472437  -33.244662  -92.421401  50.31377  5.733632  -11.216458  -17.304556  -0.238136  1.081251  -12.978027  -0.209431  0.804957  
0.0  93.25843  0.0  1.965118  30.068299  -87.535856  9.112514  -12.158064  21.178341  -3.437604  -0.701555  9.546018  7.236226  2.55781  0.170382  -28.277575  -11.965185  -44.87145  9.597202  18.93113  51.410972  7.74686  2.679087  2.091512  0.281607  0.085647  0.314244  0.770844  0.230441  0.859942  0.770845  0.230441  0.859942  -16.563089  24.285573  9.74823  149.152853  44.35889  -160.227135  -13.589362  11.576425  79.667508  62.448474  -29.206104  -7.070759  4.091794  -12.332277  14.529028  54.918478  63.92854  2.096979  -29.470962  -33.092123  -93.051019  50.084677  5.747222  -10.663114  -16.680831  0.134  1.327015  -12.510979  0.064322  0.999803  
0.0  93.25843  0.0  1.04892  28.204808  -88.695802  9.593974  -12.348976  22.625778  -2.269845  -1.206942  8.930901  7.337568  2.485057  0.414045  -26.695252  -12.633576  -43.111683  10.889081  18.487448  51.160905  7.774202  2.445213  1.821273  0.359673  -0.054201  0.336909  0.982356  -0.153157  0.92008  0.982356  -0.153157  0.92008  -17.695722  24.165284  9.360326  151.146908  45.300876  -159.559896  -14.842917  12.095765  78.765777  62.255714  -29.47396  -7.176531  4.338159  -12.423848  14.560889  57.716362  63.110135  4.138371  -26.802414  -34.091115  -94.428732  51.234187  6.884942  -9.35572  -16.076858  0.502933  1.546568  -12.05893  0.336779  1.174118  
0.0  93.25843  0.0  0.48196  27.706163  -89.119126  8.706981  -12.174069  23.46052  -1.223829  -1.736776  8.578089  7.43639  2.490046  0.596426  -25.818838  -12.654302  -41.655409  10.984183  17.849841  50.418089  7.771716  2.078947  1.299437  0.230024  -0.184896  0.253861  0.62681  -0.507798  0.692151  0.62681  -0.507798  0.692151  -17.825421  24.400835  9.527108  152.094317  46.5341  -159.043516  -16.072587  12.456233  78.066391  62.077563  -29.669006  -7.252586  3.947477  -12.237205  14.628089  61.574852  61.982715  6.678654  -25.833748  -33.962913  -95.375317  51.189085  6.894333  -8.899022  -15.251491  0.916874  1.903918  -11.44136  0.640607  1.451872  
0.0  93.25843  0.0  -0.210303  26.886932  -89.577782  8.254736  -12.229852  24.057919  -0.465156  -2.170395  8.573209  7.529349  2.487604  0.811887  -24.892335  -12.943721  -40.217038  10.367746  17.246276  49.561603  7.792948  1.734563  1.479733  0.086777  -0.321447  0.155641  0.235139  -0.879197  0.424299  0.235139  -0.879197  0.424299  -17.829637  24.618583  9.615496  153.46136  47.820598  -158.437369  -17.130431  12.662133  77.554616  61.995921  -29.745825  -7.357596  3.924831  -12.184662  14.891572  65.855086  60.717723  9.553316  -25.012176  -33.697247  -96.512324  51.164617  6.896741  -8.479694  -14.180065  1.289571  2.345977  -10.639732  0.913331  1.790486  
